<?xml version="1.0" encoding="utf-8"?>
<!-- Generator: Adobe Illustrator 16.0.0, SVG Export Plug-In . SVG Version: 6.00 Build 0)  -->
<!DOCTYPE svg PUBLIC "-//W3C//DTD SVG 1.1//EN" "http://www.w3.org/Graphics/SVG/1.1/DTD/svg11.dtd">
<svg version="1.1" id="Layer_1" xmlns="http://www.w3.org/2000/svg" xmlns:xlink="http://www.w3.org/1999/xlink" x="0px" y="0px"
	 width="24px" height="24px" viewBox="0 0 24 24" enable-background="new 0 0 24 24" xml:space="preserve">
<path d="M7.78,19.012c-1.451-0.362-2.261-1.517-2.264-3.229c-0.002-0.547,0.038-0.811,0.175-1.163
	c0.334-0.862,1.223-1.514,2.39-1.754c0.58-0.119,0.76-0.247,0.76-0.545c0-0.092,0.068-0.369,0.153-0.615
	c0.383-1.116,1.094-2.047,1.854-2.428c0.795-0.397,1.195-0.487,2.157-0.482c1.365,0.008,2.047,0.304,3,1.305l0.525,0.551L17,10.487
	c2.271-0.786,4.538,0.553,4.72,2.789l0.05,0.613l0.447,0.159c1.277,0.458,1.878,1.419,1.771,2.833
	c-0.071,0.925-0.503,1.662-1.189,2.028l-0.321,0.172l-7.152,0.014C9.828,19.105,8.082,19.087,7.78,19.012L7.78,19.012L7.78,19.012z
	 M2.417,18.024c-0.847-0.2-1.745-0.95-2.166-1.806C0.012,15.733,0,15.661,0,14.802c0-0.816,0.02-0.949,0.21-1.354
	c0.401-0.854,1.169-1.474,2.134-1.716c0.204-0.051,0.396-0.135,0.426-0.182c0.029-0.049,0.063-0.314,0.074-0.59
	c0.067-1.713,1.19-3.221,2.759-3.706C6.45,6.993,7.515,7.058,8.436,7.425c0.292,0.117,0.26,0.143,0.878-0.668
	c0.366-0.479,1.104-1.074,1.708-1.378c0.653-0.328,1.332-0.479,2.144-0.477c2.268,0.004,4.223,1.423,4.944,3.589
	c0.231,0.692,0.22,0.885-0.053,0.891c-0.118,0.002-0.46,0.068-0.757,0.146l-0.541,0.141l-0.493-0.493
	c-1.392-1.392-3.662-1.691-5.592-0.74C9.903,8.815,9.283,9.36,8.814,10.072c-0.333,0.506-0.758,1.452-0.758,1.688
	c0,0.166-0.135,0.249-0.711,0.438c-1.783,0.586-2.824,1.937-2.824,3.665c0,0.629,0.162,1.398,0.387,1.84
	c0.085,0.167,0.133,0.324,0.105,0.351c-0.069,0.069-2.287,0.046-2.595-0.026l0,0L2.417,18.024z"/>
</svg>
